<svg width="302" height="258" viewBox="0 0 302 258" fill="none" xmlns="http://www.w3.org/2000/svg">
<circle cx="139.039" cy="108.796" r="105.336" transform="rotate(135 139.039 108.796)" fill="url(#paint0_linear_2596_11054)"/>
<path d="M123.042 177.917C123.388 177.953 123.74 177.956 124.087 177.924C123.63 183.151 123.975 188.401 123.735 193.638C123.54 202.533 123.195 211.554 123.462 220.466C123.377 230.971 123.122 241.507 123.588 252C123.407 252.007 123.227 252.018 123.052 252.014C120.393 252.046 117.741 251.916 115.082 251.976C112.583 251.941 110.081 251.893 107.58 251.918C107.094 251.925 106.611 251.96 106.126 251.998C106.115 251.329 106.043 250.633 106.1 250.204C106.133 246.735 106.264 243.256 106.238 239.782C106.447 230.637 106.576 221.527 106.944 212.38C107.025 208.753 107.302 205.13 107.399 201.505C107.459 196.383 107.256 191.259 107.321 186.136C107.251 183.395 107.346 180.648 107.104 177.916C107.084 177.756 107.063 177.578 107.026 177.403C108.961 177.377 110.981 177.576 112.921 177.674C116.292 177.786 119.674 177.707 123.042 177.917Z" fill="white"/>
<path d="M164.874 238.19C164.936 242.64 164.743 247.093 164.759 251.544C164.739 251.544 164.721 251.546 164.704 251.546C163.224 251.508 161.744 251.578 160.264 251.553C157.523 251.509 154.78 251.732 152.022 251.69C150.807 251.701 149.65 251.797 148.426 251.839C148.283 251.836 148.132 251.82 147.98 251.815C147.988 250.099 147.902 248.369 147.937 246.65C147.863 241.977 147.957 237.302 147.953 232.627C147.776 224.64 147.831 216.658 148.109 208.675C148.319 200.835 148.255 192.994 147.947 185.157C147.921 182.936 147.685 180.729 147.577 178.514C147.613 178.515 147.65 178.515 147.685 178.515C148.834 178.454 149.98 178.309 151.131 178.243C152.864 178.225 154.602 178.099 156.337 178.182C158.691 178.155 160.993 178.054 163.379 177.853C163.671 177.814 163.992 177.825 164.29 177.778C164.289 178.104 164.296 178.43 164.257 178.727C164.179 181.028 164.253 183.331 164.345 185.632C164.411 192.017 164.388 198.404 164.435 204.794C164.483 215.927 164.716 227.057 164.874 238.19Z" fill="white"/>
<path d="M201.984 182.148C202.186 190.341 201.926 198.555 201.759 206.774C201.57 217.13 201.83 227.475 201.88 237.828C201.883 240.663 201.798 243.676 201.899 246.57C201.938 247.879 201.927 249.187 201.941 250.496C201.94 250.514 201.94 250.531 201.938 250.549C201.77 250.551 201.602 250.551 201.439 250.544C197.146 250.572 192.858 250.804 188.566 250.87C187.772 250.889 186.98 250.959 186.186 250.934C185.942 250.939 185.644 250.914 185.365 250.932C185.344 250.671 185.321 250.409 185.321 250.146C185.202 247.624 185.114 245.1 184.992 242.579C184.643 233.972 184.505 225.425 184.496 216.803C184.595 210.315 184.409 203.587 184.438 197.056C184.462 192.545 184.6 188.034 184.666 183.522C184.572 179.128 184.331 174.736 184.252 170.341C184.178 166.459 184.287 162.619 184.241 158.709C184.223 158.565 184.22 158.39 184.22 158.202C184.375 157.945 184.436 157.602 184.48 157.301C190.21 157.013 195.969 157.034 201.706 157.002C201.214 165.374 201.669 173.773 201.984 182.148Z" fill="white"/>
<path d="M232.888 203.903C232.857 213.425 233.193 222.946 233.097 232.471C233.099 236.219 232.971 239.968 233.026 243.715C233.026 243.716 233.026 243.718 233.026 243.72C232.989 245.994 232.959 248.269 232.943 250.536C232.582 250.525 232.221 250.521 231.87 250.49C228.606 250.347 225.336 250.45 222.074 250.338C220.35 250.319 218.627 250.246 216.904 250.128C216.708 250.132 216.487 250.107 216.26 250.081C215.924 250.041 215.575 250.004 215.272 250.066C215.324 247.92 215.308 245.774 215.326 243.626C215.28 236.114 215.851 228.606 215.812 221.094C215.713 212.369 215.846 203.641 215.804 194.916C215.581 190.357 215.531 185.792 215.446 181.229C215.244 166.855 215.327 152.477 215.09 138.105C215.059 136.374 215.016 134.642 214.864 132.916C214.823 132.645 214.814 132.355 214.782 132.072C215.129 132.031 215.48 132.013 215.823 131.974C221.049 131.62 226.28 132.145 231.506 131.811C231.518 132.211 231.593 132.621 231.591 133.012C231.625 134.101 231.649 135.192 231.672 136.281C231.672 136.283 231.672 136.283 231.672 136.285C231.704 140.269 231.656 144.256 231.654 148.24C231.878 154.827 231.97 161.413 231.993 168.007C232.272 179.97 232.782 191.932 232.888 203.903Z" fill="white"/>
<path d="M268.078 244.177C268.094 246.309 268.135 248.441 268.147 250.573C262.146 250.851 256.191 250.288 250.191 250.16C250.184 247.95 250.103 245.734 250.142 243.52C250.206 233.045 249.892 222.57 250.076 212.094C250.043 198.227 250.107 184.835 250.324 170.963C250.246 152.957 250 134.947 250.207 116.939C250.202 115.026 250.257 113.111 250.376 111.202C250.39 111.042 250.42 110.858 250.448 110.662C250.627 110.664 250.804 110.655 250.972 110.652C251.999 110.595 253.02 110.529 254.048 110.521C257.845 110.684 261.601 110.632 265.43 110.655C265.429 110.916 265.452 111.183 265.434 111.433C265.529 114.556 265.632 117.679 265.719 120.804C265.917 127.122 265.896 133.443 266.076 139.762C266.606 149.011 267.11 158.258 267.217 167.524C267.33 176.207 267.574 184.888 267.691 193.573C267.734 204.93 267.718 216.286 267.937 227.644C267.941 233.154 268.018 238.667 268.078 244.177Z" fill="white"/>
<path d="M125.627 188.266C125.486 184.599 125.631 180.997 125.622 177.312C125.601 177.212 125.57 177.129 125.535 177.051C125.574 176.148 124.054 176.318 123.341 176.256C118.034 176.024 112.725 175.872 107.417 175.77C106.914 175.754 106.27 175.673 105.908 176.132C105.421 176.321 105.363 176.947 105.586 177.388C105.464 185.763 105.627 194.192 105.571 202.584C105.104 211.324 104.809 220.095 104.744 228.852C104.465 234.764 104.488 240.682 104.389 246.598C104.313 248.574 104.345 250.569 104.305 252.547C104.246 253.048 104.357 253.609 104.883 253.8C105.006 253.831 105.116 253.844 105.217 253.845C105.268 253.863 105.321 253.878 105.37 253.887C105.753 253.952 106.151 253.958 106.537 253.97C109.906 253.928 113.271 253.74 116.642 253.68C119.282 253.57 121.982 253.861 124.594 253.415C124.592 253.414 124.591 253.413 124.59 253.412C124.604 253.407 124.614 253.397 124.627 253.391C124.998 253.324 125.332 253.056 125.354 252.623C125.301 250.402 125.215 248.178 125.216 245.956C124.999 237.434 125.202 228.913 125.274 220.392C125.19 215.547 125.074 210.705 125.271 205.861C125.384 200.044 125.528 194.139 125.627 188.266ZM115.084 251.975C112.584 251.939 110.083 251.892 107.581 251.916C107.095 251.923 106.612 251.959 106.128 251.996C106.117 251.327 106.044 250.632 106.101 250.202C106.135 246.735 106.267 243.256 106.239 239.781C106.449 230.636 106.577 221.526 106.945 212.378C107.027 208.752 107.304 205.128 107.4 201.503C107.461 196.381 107.257 191.257 107.323 186.134C107.252 183.394 107.348 180.645 107.105 177.914C107.085 177.756 107.064 177.579 107.027 177.406C108.964 177.381 110.982 177.576 112.922 177.672C116.295 177.785 119.676 177.706 123.044 177.916C123.392 177.952 123.744 177.951 124.093 177.921C123.638 183.15 123.976 188.4 123.736 193.638C123.542 202.532 123.196 211.553 123.463 220.466C123.379 230.971 123.13 241.506 123.594 251.998C123.411 252.005 123.229 252.015 123.052 252.012C120.394 252.044 117.742 251.914 115.084 251.975ZM166.488 224.403C166.124 208.628 166.354 192.848 165.826 177.079C165.858 176.812 165.801 176.543 165.681 176.339C165.596 176.14 165.418 175.978 165.109 175.938C162.264 176.071 159.521 176.317 156.644 176.367C154.163 176.443 151.688 176.499 149.209 176.595C148.456 176.693 147.627 176.619 146.885 176.812C145.24 176.687 146.212 181.577 146.131 182.783C146.216 186.664 146.358 190.542 146.386 194.425C146.614 203.142 146.138 211.857 146.034 220.573C145.989 225.335 146.208 230.099 146.165 234.862C146.175 240.793 146.049 246.748 146.273 252.67C146.337 252.935 146.512 253.104 146.72 253.199C146.788 253.294 146.873 253.378 146.995 253.431C147.574 253.604 148.215 253.459 148.818 253.499C152.599 253.465 156.381 253.376 160.16 253.28C161.895 253.276 163.65 253.525 165.374 253.237C165.599 253.203 165.784 253.108 165.921 252.967C166.434 252.791 166.622 252.108 166.554 251.564C166.562 250.294 166.55 249.024 166.559 247.754C166.775 239.97 166.551 232.188 166.488 224.403ZM160.268 251.553C157.527 251.509 154.784 251.734 152.025 251.69C150.81 251.7 149.652 251.796 148.43 251.841C148.285 251.838 148.131 251.822 147.979 251.815C147.986 250.1 147.906 248.37 147.942 246.651C147.866 241.977 147.961 237.302 147.957 232.628C147.78 224.641 147.835 216.658 148.113 208.676C148.324 200.835 148.259 192.996 147.952 185.158C147.926 182.937 147.697 180.729 147.59 178.514C147.623 178.515 147.656 178.517 147.689 178.517C148.838 178.456 149.984 178.31 151.134 178.243C152.869 178.225 154.605 178.099 156.341 178.184C158.695 178.157 160.996 178.055 163.383 177.853C163.675 177.814 163.995 177.824 164.295 177.778C164.293 178.104 164.3 178.43 164.26 178.727C164.183 181.029 164.257 183.332 164.349 185.632C164.415 192.018 164.391 198.405 164.439 204.794C164.485 215.927 164.718 227.058 164.876 238.19C164.939 242.642 164.75 247.093 164.766 251.545C164.747 251.546 164.725 251.545 164.707 251.546C163.228 251.508 161.748 251.578 160.268 251.553ZM203.838 185.368C203.74 178.662 203.32 171.965 203.24 165.257C203.27 163.116 203.254 160.974 203.229 158.833C203.162 157.951 203.402 156.978 203.195 156.117C203.168 155.58 202.661 155.025 201.933 155.132C197.085 155.118 192.233 155.165 187.392 155.392C186.271 155.51 185.069 155.495 183.941 155.714C183.663 155.741 183.449 155.859 183.276 156.024C182.672 156.101 182.684 156.86 182.694 157.372C182.689 157.468 182.688 157.563 182.684 157.659C182.682 157.683 182.679 157.707 182.678 157.731C182.678 157.738 182.68 157.745 182.681 157.752C182.608 159.576 182.634 161.403 182.531 163.226C182.271 172.809 183.183 182.29 182.771 191.892C182.608 198.717 182.823 205.543 182.84 212.368C182.771 218.296 182.867 224.303 182.954 230.248C183.013 235.028 183.221 239.806 183.421 244.581C183.494 246.487 183.574 248.393 183.657 250.299C183.776 251.005 183.503 252.013 184.126 252.498C184.179 252.619 184.267 252.726 184.399 252.795C184.959 253.039 185.604 252.919 186.201 252.958C191.829 252.864 197.474 252.874 203.085 252.439C203.719 252.325 203.994 251.567 203.704 251.065C203.716 250.951 203.717 250.835 203.698 250.725C203.672 249.799 203.677 248.874 203.667 247.949C203.554 244.596 203.601 241.245 203.617 237.892C203.598 225.797 203.195 213.697 203.661 201.605C203.73 196.214 203.839 190.791 203.838 185.368ZM201.44 250.542C197.147 250.571 192.859 250.802 188.567 250.868C187.773 250.887 186.981 250.957 186.188 250.932C185.943 250.938 185.647 250.915 185.368 250.933C185.345 250.671 185.321 250.407 185.321 250.144C185.203 247.623 185.114 245.098 184.992 242.577C184.644 233.971 184.505 225.423 184.496 216.801C184.596 210.313 184.411 203.586 184.438 197.054C184.463 192.543 184.601 188.032 184.666 183.52C184.573 179.126 184.332 174.734 184.252 170.339C184.178 166.457 184.287 162.616 184.242 158.707C184.224 158.561 184.221 158.385 184.221 158.193C184.374 157.938 184.437 157.599 184.481 157.3C190.212 157.011 195.97 157.031 201.709 157.001C201.218 165.374 201.671 173.772 201.984 182.145C202.188 190.34 201.927 198.555 201.76 206.773C201.571 217.128 201.831 227.473 201.88 237.826C201.885 240.662 201.798 243.675 201.899 246.569C201.939 247.879 201.929 249.185 201.942 250.495C201.941 250.512 201.941 250.53 201.94 250.546C201.772 250.548 201.604 250.55 201.44 250.542ZM235.134 205.137C234.861 200.548 234.957 195.947 234.741 191.359C234.339 183.963 234.277 176.56 234.082 169.157C234.018 162.864 234.08 156.568 233.703 150.282C233.625 146.86 233.785 143.434 233.565 140.014C233.399 137.06 233.584 134.086 233.214 131.146C233.17 130.889 232.979 130.697 232.743 130.591C232.716 130.544 232.687 130.5 232.655 130.461C232.222 129.803 231.263 130.07 230.586 130.009C229.179 130.024 227.772 130.063 226.365 130.046C223.191 130.021 220.018 129.889 216.846 130.09C216.143 130.134 215.434 130.163 214.736 130.273C214.356 130.319 213.942 130.39 213.734 130.754C213.178 130.913 212.874 131.637 213.264 132.063C213.229 132.583 213.309 133.135 213.286 133.643C213.33 135.204 213.336 136.762 213.34 138.323C213.511 151.555 213.44 164.792 213.719 178.023C213.716 183.688 213.85 189.351 214.095 195.01C214.08 200.785 214.101 206.559 214.1 212.335C213.999 216.354 214.172 220.382 214.105 224.404C214.027 228.762 213.783 233.126 213.707 237.486C213.644 241.246 213.642 245.008 213.609 248.769C213.689 249.685 213.279 250.916 213.813 251.73C213.838 251.761 213.869 251.781 213.897 251.808C214.025 251.974 214.205 252.104 214.442 252.142C216.345 252.394 218.28 252.394 220.213 252.394C221.263 252.394 222.315 252.394 223.359 252.435C226.243 252.387 229.174 252.328 232.083 252.387C232.091 252.387 232.098 252.388 232.106 252.388C232.25 252.381 232.394 252.372 232.538 252.361C232.975 252.325 233.413 252.293 233.852 252.272C234.217 252.253 234.582 252.241 234.947 252.227C234.958 252.219 234.968 252.211 234.978 252.202C234.978 252.076 234.98 251.948 234.98 251.822C234.949 251.775 234.933 251.722 234.932 251.663C234.927 251.502 234.921 251.34 234.916 251.178C234.902 250.781 234.89 250.385 234.897 249.987C234.902 249.723 234.905 249.457 234.921 249.192C234.925 249.133 234.928 249.075 234.932 249.017C234.871 248.15 234.807 247.278 234.747 246.409C234.777 244.985 234.803 243.561 234.803 242.137C234.879 229.804 235.943 217.474 235.134 205.137ZM231.871 250.49C228.607 250.347 225.337 250.45 222.075 250.338C220.35 250.319 218.628 250.246 216.905 250.128C216.709 250.132 216.488 250.107 216.261 250.081C215.924 250.042 215.574 250.006 215.27 250.069C215.322 247.921 215.309 245.773 215.326 243.625C215.28 236.113 215.851 228.606 215.813 221.093C215.713 212.369 215.846 203.641 215.803 194.915C215.582 190.356 215.532 185.792 215.446 181.228C215.245 166.856 215.327 152.477 215.09 138.105C215.058 136.373 215.016 134.641 214.863 132.915C214.823 132.645 214.813 132.357 214.781 132.074C215.128 132.033 215.479 132.013 215.823 131.975C221.05 131.62 226.283 132.135 231.508 131.801C231.519 132.204 231.592 132.617 231.591 133.011C231.621 134.028 231.645 135.044 231.667 136.06C231.703 140.119 231.658 144.181 231.655 148.241C231.878 154.827 231.97 161.414 231.993 168.007C232.273 179.972 232.783 191.934 232.889 203.904C232.857 213.427 233.194 222.948 233.098 232.472C233.1 236.178 232.979 239.884 233.029 243.587C232.991 245.907 232.963 248.224 232.946 250.536C232.584 250.525 232.222 250.521 231.871 250.49ZM269.924 248.811C269.882 246.297 269.883 243.778 269.844 241.263C269.769 231.522 269.664 221.784 269.532 212.043C269.554 200.448 269.505 188.853 269.173 177.261C269.109 164.447 268.605 151.652 267.859 138.862C267.636 129.22 267.678 119.533 267.084 109.92C267.083 109.921 267.082 109.921 267.082 109.922C267.071 109.893 267.053 109.87 267.039 109.843C267.056 109.518 266.907 109.184 266.581 109.022C266.247 108.847 265.864 108.93 265.503 108.909C260.777 108.849 256.049 108.553 251.32 108.544C250.839 108.549 250.368 108.644 249.887 108.619C249.586 108.59 249.273 108.689 249.076 108.937C248.899 109.126 248.81 109.372 248.815 109.614C248.734 109.947 248.712 110.319 248.678 110.627C248.543 112.202 248.472 113.783 248.434 115.364C248.182 133.458 248.377 151.556 248.554 169.649C248.357 183.349 248.255 197.048 248.326 210.748C248.194 219.009 248.291 227.271 248.374 235.531C248.461 240.548 248.203 245.594 248.495 250.6C248.449 250.72 248.422 250.849 248.439 250.988C248.609 252.546 251.293 251.768 252.41 251.988C256.073 252.179 259.74 252.319 263.407 252.399C264.728 252.397 266.048 252.363 267.369 252.349C268.106 252.264 269.08 252.51 269.608 251.861C269.69 251.712 269.742 251.537 269.776 251.357C270.154 250.761 269.845 249.616 269.924 248.811ZM250.188 250.163C250.179 247.952 250.104 245.735 250.141 243.521C250.205 233.045 249.892 222.57 250.076 212.095C250.042 198.227 250.107 184.836 250.324 170.964C250.246 152.957 250.001 134.947 250.207 116.94C250.202 115.027 250.257 113.111 250.376 111.202C250.391 111.043 250.42 110.858 250.449 110.663C250.627 110.663 250.804 110.656 250.972 110.652C251.998 110.594 253.02 110.529 254.048 110.522C257.845 110.683 261.602 110.632 265.43 110.655C265.43 110.916 265.45 111.183 265.432 111.432C265.529 114.557 265.631 117.68 265.717 120.804C265.915 127.121 265.895 133.444 266.075 139.762C266.605 149.01 267.11 158.259 267.215 167.524C267.328 176.207 267.573 184.889 267.689 193.573C267.732 204.931 267.717 216.286 267.935 227.644C267.941 233.154 268.017 238.667 268.077 244.177C268.092 246.309 268.133 248.439 268.147 250.572C262.146 250.849 256.188 250.292 250.188 250.163Z" fill="#143647"/>
<path d="M94.3235 255.565C93.5978 255.606 92.5518 255.356 92.7376 254.42C93.0349 253.47 94.2713 253.609 95.0635 253.465C99.174 253.221 103.095 251.175 105.815 248.09C109.289 243.625 111.89 238.621 114.922 233.877C116.771 231.04 119.065 228.507 121.442 226.11C124.58 223.213 128.637 221.582 132.623 220.232C136.124 219.247 139.752 218.725 143.353 218.255C146.485 217.967 149.638 218.037 152.778 217.847C161.151 217.399 169.697 216.718 177.653 213.891C182.641 212.009 187.114 209.266 191.404 206.18C193.461 204.636 195.18 202.702 196.944 200.841C200.576 196.983 203.694 192.659 207.436 188.898C209.44 186.959 211.669 185.253 213.937 183.641C216.05 182.3 218.211 181.017 220.524 180.059C223.093 178.997 225.811 178.376 228.412 177.4C234.32 175.442 240.283 172.986 244.892 168.668C247.009 166.631 248.867 164.318 250.452 161.842C252.173 158.728 253.478 155.329 254.229 151.847C255.438 143.13 258.32 138.276 266.002 133.783C269.955 131.449 274.088 129.421 278.156 127.308C279.765 126.405 281.372 125.464 282.761 124.236C284.619 122.334 286.306 120.119 287.054 117.528C287.356 116.711 287.347 115.43 288.502 115.515C289.288 115.607 289.596 116.511 289.337 117.209C289.05 118.406 288.659 119.587 288.118 120.692C287.317 122.145 286.32 123.482 285.275 124.765C281.432 128.915 275.829 130.69 271.03 133.447C264.231 137.067 258.437 140.686 257.006 148.859C256.684 150.203 256.499 151.568 256.241 152.922C255.702 155.342 254.785 157.647 253.844 159.932C252.625 163.027 250.55 165.657 248.418 168.166C243.821 173.526 237.318 176.658 230.779 178.942C226.677 180.448 222.325 181.338 218.482 183.485C215.249 185.226 212.234 187.506 209.516 189.947C204.513 194.93 200.496 200.811 195.379 205.688C190.961 209.799 185.604 212.87 180.116 215.311C172.959 218.326 165.113 219.192 157.442 219.843C152.787 220.255 148.111 220.168 143.457 220.523C139.06 221.145 134.436 221.729 130.342 223.473C127.599 224.581 124.881 225.937 122.731 228.012C118.978 231.715 115.976 236.029 113.471 240.653C112.548 242.316 111.473 243.886 110.414 245.466C109.183 247.311 108.037 249.263 106.382 250.764C103.14 253.798 98.8157 255.819 94.3235 255.565Z" fill="#143647"/>
<path d="M114.47 235.853C112.006 233.918 113.876 228.723 117.086 230.933C118.076 231.717 118.39 233.301 118.175 234.504C117.824 236.104 115.73 237.056 114.47 235.853Z" fill="#5F0AFF"/>
<path d="M156.246 221.496C153.618 220.916 154.221 215.373 157.087 216.313C157.801 216.36 158.704 216.69 158.611 217.553C159.524 219.271 158.505 222.105 156.246 221.496Z" fill="#5F0AFF"/>
<path d="M192.898 207.67C190.061 206.693 191.645 201.146 194.587 202.243C196.022 202.967 196.487 205.153 195.675 206.496C195.113 207.361 193.939 208.057 192.898 207.67Z" fill="#5F0AFF"/>
<path d="M223.536 182.055C221.069 181.061 221.771 176.301 224.669 177.003C227.545 177.678 226.606 183.216 223.536 182.055Z" fill="#5F0AFF"/>
<path d="M257.807 145.927C256.399 145.793 255.471 144.338 255.745 142.98C255.582 141.611 256.629 140.232 258.051 140.28C261.61 140.309 261.517 146.337 257.807 145.927Z" fill="#5F0AFF"/>
<path d="M123.714 254.02C117.908 253.841 112.095 253.909 106.288 253.795C105.852 253.777 105.504 253.362 105.488 252.941C105.473 252.511 105.792 252.09 106.225 252.031C106.408 252.006 106.592 252.013 106.774 252.015C113.705 252.026 120.64 252.25 127.566 252.226C139.655 252.062 151.736 251.632 163.824 251.44C171.415 251.6 179.006 251.521 186.598 251.31C191.678 251.322 196.757 251.44 201.837 251.276C208.791 251.059 215.744 251.008 222.694 250.653C227.955 250.493 233.216 250.667 238.475 250.569C242.557 250.505 246.635 250.259 250.719 250.381C254.243 250.388 257.783 250.879 261.291 250.972C264.381 251.087 267.441 251.059 270.53 250.975C272.186 250.985 273.855 250.618 275.499 250.881C275.916 250.924 276.354 251.245 276.3 251.712C276.275 251.965 276.119 252.164 275.898 252.278C271.143 252.915 266.252 252.947 261.446 252.797C258.443 252.739 255.438 252.365 252.44 252.242C246.975 252.017 241.516 252.397 236.05 252.415C228.649 252.336 221.254 252.425 213.863 252.828C208.949 252.865 204.04 252.991 199.127 253.127C193.691 253.253 188.258 253.021 182.823 253.189C175.861 253.429 168.891 253.254 161.934 253.268C149.19 253.452 136.453 254.038 123.707 254.02C123.707 254.02 123.714 254.02 123.714 254.02Z" fill="#143647"/>
<path d="M70.6803 252.429C69.3031 252.412 67.9219 252.371 66.5453 252.302C65.3472 252.242 64.3007 252.002 64.4015 250.548C64.3867 249.696 64.6272 248.526 65.554 248.256C68.2766 247.655 71.0871 247.654 73.7867 246.939C76.6361 245.486 78.1341 243.28 78.7062 240.129C78.849 239.294 78.7553 237.871 79.9728 237.99C82.8039 238.05 85.6467 238.04 88.4614 237.697C89.6036 237.661 89.6384 238.672 89.5238 239.51C89.4573 240.789 89.337 242.065 89.2505 243.344C89.1686 244.69 89.1338 246.038 89.1589 247.387C89.1799 248.386 89.2224 249.385 89.1077 250.38C89.0704 250.797 88.9962 251.313 88.6246 251.569C88.2296 251.858 87.5351 251.783 87.1375 251.824C85.9461 251.932 84.7445 251.828 83.5516 251.945C79.2651 252.141 74.9724 252.372 70.6803 252.429ZM68.5718 250.601C74.8301 250.687 81.0782 250.145 87.3268 249.992C87.3514 246.527 87.3626 243.056 87.707 239.603C85.3443 239.898 82.9605 239.802 80.5849 239.834C80.1171 243.003 78.6294 246.422 75.7032 247.992C72.7785 249.384 69.2975 249.17 66.2065 249.864C66.1226 250.066 66.1261 250.293 66.1256 250.509C66.9373 250.61 67.7566 250.576 68.5718 250.601Z" fill="#5F0AFF"/>
<path d="M146.943 140.168L176.141 165.671L173.923 167.888L166.531 172.324L153.965 177.498H143.616L131.05 175.28L115.896 171.215L89.2851 157.17L83.0019 224.807L55.6515 214.458L54.1731 211.501L64.1523 176.759L71.9139 152.365L77.4579 139.429L87.4371 134.255L100.003 132.407L117.375 133.516L135.855 138.32L146.943 140.168Z" fill="#CFB5FF"/>
<path d="M155.812 148.67L149.159 139.06L158.769 139.799L162.095 139.06V117.993L165.052 115.775L165.422 113.558V109.492L164.313 108.014L163.574 106.166L162.095 105.426L161.726 92.1209L161.356 64.0313L160.617 60.3353L156.921 59.2265L157.66 57.3785L161.356 57.7481L166.53 55.1609L171.705 49.9865L173.183 45.9209L183.162 49.9865L193.511 58.4873L205.338 73.2713L217.905 99.8825L222.34 113.188V120.95L220.122 125.015L217.905 129.081L209.034 132.038H198.316L196.468 137.951L187.598 152.735L180.575 160.497L177.618 163.823L168.009 159.388L155.812 148.67Z" fill="#CFB5FF"/>
<path d="M63.393 231.215C57.1224 229.738 51.0274 227.549 45.1698 224.867C43.3279 223.829 41.2047 222.949 39.8945 221.229C39.4836 220.334 40.2159 219.373 40.5583 218.561C40.9999 217.617 41.7865 217.701 42.611 218.057C42.6023 218.054 42.5931 218.051 42.5844 218.048C42.5593 218.04 42.5342 218.032 42.5091 218.024C47.7337 219.794 55.2678 222.375 59.0425 216.834C59.2263 216.465 59.6091 216.135 60.0369 216.27C60.369 216.08 60.8373 216.221 61.1254 216.402C62.2605 216.932 63.4288 217.385 64.6069 217.806C65.5639 218.156 66.5101 218.531 67.4784 218.844C68.2363 219.056 69.2634 219.47 68.8806 220.453C68.0505 223.154 67.0275 225.779 66.0091 228.413C65.4549 229.569 65.1796 231.936 63.393 231.215ZM59.2841 228.264C59.8946 228.451 60.5144 228.597 61.1305 228.763C61.9754 228.989 62.8173 229.224 63.6663 229.433C64.7865 226.495 66.0102 223.587 66.9293 220.576C64.6806 219.789 62.4176 219.016 60.2595 218.001C58.9996 220.298 56.3753 221.52 53.8866 221.897C49.8099 222.47 45.7992 221.007 41.9774 219.762C41.9759 219.766 41.9743 219.769 41.9728 219.772C41.8571 220.02 41.7512 220.275 41.655 220.532C44.0577 222.584 46.9717 223.686 49.8293 224.905C52.9332 226.167 56.0963 227.321 59.2841 228.264Z" fill="#5F0AFF"/>
<path d="M60.8904 235.744C54.5113 232.782 48.4761 229.119 42.2741 225.81C40.3611 224.634 35.3341 222.433 35.5562 219.896C35.7015 218.239 36.6022 216.435 38.1974 215.776C38.9343 215.527 39.7311 215.772 40.4865 215.814C41.4783 215.931 42.4685 216.092 43.4455 216.292C46.516 216.874 49.4945 217.763 52.3097 219.019C53.062 219.309 53.7958 220.002 53.3117 220.848C52.9959 221.54 52.758 222.262 52.5983 223.006C52.2626 224.34 51.4673 225.487 50.9075 226.728C54.4928 228.647 57.8633 231.113 61.6831 232.489C62.4236 232.695 63.1574 233.397 62.7311 234.204C62.4021 234.952 61.9246 236.214 60.8904 235.744ZM42.8037 221.893C44.5407 223.023 46.274 224.158 48.0856 225.163C49.1122 223.625 49.997 221.971 50.8041 220.319C47.5508 219.007 44.166 218.114 40.7147 217.64C39.5065 217.499 38.42 217.059 37.8018 218.458C39.3657 219.745 41.1293 220.762 42.8037 221.893Z" fill="#3A0699"/>
<path d="M87.3152 255.534C80.8169 255.379 74.3185 255.007 67.8299 254.649C66.244 254.493 64.6616 254.24 63.0649 254.279C62.6995 254.482 62.242 254.519 61.8592 254.347C59.8695 253.77 60.2436 252.351 60.4785 250.696C62.1284 246.617 67.6206 246.086 71.4419 245.838C72.3206 245.888 73.5857 245.416 74.1271 246.343C74.8687 248.11 75.4234 249.985 75.4285 251.92C78.8742 252.018 82.325 251.865 85.7651 251.814C87.2993 251.835 88.8382 251.856 90.3658 252.016C91.2143 252.073 92.616 252.359 92.3478 253.504C92.2137 254.295 91.8693 255.866 90.7649 255.347C89.6309 255.582 88.4656 255.539 87.3152 255.534ZM62.1049 251.998C63.7522 251.777 65.4119 251.918 67.0654 251.918C69.2403 251.927 71.4174 251.824 73.5918 251.906C73.5058 250.646 73.0371 249.459 72.555 248.306C70.1518 248.251 61.7983 248.541 62.1049 251.998Z" fill="#3A0699"/>
<path d="M50.8043 220.32C49.9972 221.971 49.1119 223.625 48.0853 225.164C46.2742 224.159 44.5414 223.023 42.8029 221.893C41.13 220.761 39.367 219.745 37.802 218.458C38.4197 217.06 39.5067 217.499 40.716 217.64C44.1657 218.115 47.5505 219.006 50.8043 220.32Z" fill="white"/>
<path d="M72.5523 248.305C73.0354 249.459 73.5047 250.645 73.5897 251.905C71.4157 251.824 69.2382 251.927 67.0627 251.918C65.4092 251.918 63.7506 251.775 62.1022 251.998C61.7962 248.542 70.1501 248.25 72.5523 248.305Z" fill="white"/>
<path d="M175.525 167.404C170.945 171.623 165.341 174.581 159.43 176.459C154.794 177.822 149.937 178.45 145.106 178.542C141.334 178.347 137.593 178.002 133.919 177.308C131.324 177.097 128.73 176.891 126.13 176.819C122.931 176.675 119.748 176.299 116.54 176.284C113.065 176.212 109.595 176.479 106.12 176.485C104.912 176.541 103.689 176.675 102.481 176.577C102.323 177.827 102.164 179.057 101.975 180.297C101.325 185.796 100.997 191.327 100.04 196.785C99.6003 200.726 99.1704 204.667 98.8173 208.618C98.1827 213.423 97.282 218.203 96.8879 223.039C96.4222 226.959 96.0487 230.889 95.67 234.82C95.5062 236.477 95.5369 238.149 95.2964 239.8C95.2605 240.217 94.933 240.489 94.5697 240.556C94.4059 240.659 94.2063 240.695 94.0119 240.711C93.3517 240.762 92.6864 240.762 92.0262 240.757C87.0366 240.726 82.0571 240.556 77.0675 240.572C76.2026 240.556 75.3429 240.474 74.4831 240.505C73.7411 240.443 72.0471 240.85 71.9345 239.821C71.8987 239.759 71.868 239.692 71.8424 239.615C71.6428 238.113 71.8731 236.559 71.8629 235.041C71.8578 232.824 71.8475 230.637 71.9755 228.425C72.0011 226.126 72.0727 223.836 72.1648 221.552C68.4853 220.816 64.9439 219.643 61.4639 218.254C59.4988 217.56 57.5387 216.824 55.6401 215.96C55.1488 215.687 54.0844 215.311 53.6494 214.771C53.1427 214.571 52.9534 213.969 53.1376 213.444C53.3167 212.358 53.6084 211.309 53.9155 210.254C54.4784 208.33 54.8367 206.355 55.4456 204.441C56.592 200.592 57.595 196.703 58.7465 192.86C59.8519 188.976 61.2695 185.194 62.2981 181.29C63.9716 174.252 66.167 167.363 68.2703 160.449C70.3123 152.865 71.9704 144.644 77.395 138.666C78.4799 137.755 79.6007 136.829 80.8033 136.078C82.7173 135.168 84.6518 134.252 86.6783 133.619C86.6835 133.619 86.6886 133.619 86.6886 133.614C86.7602 133.593 86.8319 133.578 86.9035 133.557C87.6865 133.295 88.4746 133.064 89.2781 132.873C92.5636 131.978 95.9463 131.479 99.3546 131.5C105.639 131.417 111.908 132.05 118.07 133.264C121.227 133.743 124.416 134.278 127.512 135.003C129.948 135.518 132.363 136.083 134.779 136.665C134.861 136.783 134.978 136.886 135.132 136.953C135.132 136.958 135.127 136.958 135.127 136.958C143.77 139.942 150.034 147.006 155.679 153.946C155.638 153.905 155.597 153.863 155.556 153.822C153.345 151.512 151.498 148.873 149.2 146.645C147.496 144.953 145.725 143.343 143.729 142.02C142.936 141.496 142.174 140.919 141.426 140.328C141.345 140.384 141.252 140.426 141.155 140.456C133.878 138.877 126.519 136.953 119.185 135.579C113.97 134.602 108.756 133.887 103.469 133.439C100.383 133.172 97.3536 133.511 94.3036 133.871C91.0334 134.19 87.8554 134.988 84.9588 136.567C82.5075 137.694 80.2813 139.289 78.5311 141.357C77.6355 142.422 76.786 143.538 76.044 144.727C74.4063 147.731 73.1884 150.982 72.4668 154.301C71.4484 158.854 70.1024 163.319 68.8742 167.821C67.5539 172.569 65.819 177.184 64.3554 181.892C62.3083 188.23 60.5325 194.65 58.5418 200.999C57.3494 204.981 56.0751 208.942 55.1181 212.991C55.1028 213.043 55.0925 213.104 55.0823 213.161C55.7118 213.418 56.4078 213.958 56.8888 214.133C59.4783 215.445 61.9911 216.371 64.6573 217.369C67.0984 218.414 69.6623 219.046 72.2467 219.633C72.3747 216.618 72.5282 213.603 72.6305 210.568C72.7841 207.476 73.0962 204.394 73.3112 201.302C73.5466 197.346 73.6029 193.385 73.8536 189.434C74.2068 182.396 74.5803 175.348 75.6192 168.371C76.2282 164.492 76.4124 160.32 78.6232 156.95C80.8085 153.719 84.4471 151.497 88.2648 150.808C88.229 150.741 88.2034 150.669 88.1778 150.597C87.9526 149.979 88.6333 149.316 89.2371 149.635C89.7182 149.753 90.0457 150.195 90.4193 150.494C91.4224 151.389 92.5175 152.464 93.4029 153.364C95.4806 155.258 97.6607 157.043 99.8101 158.843C107.875 164.636 116.647 169.472 125.997 172.806C133.689 175.708 142 177.308 150.193 176.088C155.52 175.559 160.74 173.835 165.622 171.705C168.442 170.337 171.318 168.994 173.652 166.854C174.261 167.049 174.88 167.234 175.525 167.404Z" fill="#3A0699"/>
<path d="M173.358 46.6955C173.036 47.5495 172.724 48.4035 172.365 49.2421C170.538 52.617 167.969 55.8221 164.321 57.2626C162.862 58.0909 161.219 58.4562 159.551 58.2864C156.46 58.1115 153.18 56.9745 151.127 54.5617C150.457 53.6974 150.043 52.6376 149.551 51.7115C149.495 51.6292 149.444 51.5418 149.398 51.444C149.884 51.2331 150.375 51.0324 150.866 50.8421C150.872 50.8472 150.877 50.8575 150.882 50.8627C151.537 51.7527 151.941 52.8125 152.663 53.6562C155.39 56.3057 160.523 57.5816 163.881 55.498C165.718 54.7881 167.13 53.4813 168.399 51.9996C169.546 50.5591 170.661 49.0209 171.245 47.2563C171.408 46.9321 171.516 46.4743 171.68 46.0781C172.243 46.2788 172.8 46.4846 173.358 46.6955Z" fill="#3A0699"/>
<path d="M221.118 125.615C219.536 128.635 216.445 130.61 213.421 131.963C208.815 133.692 203.759 133.203 198.933 133.332C198.897 133.44 198.851 133.538 198.795 133.635C198.795 133.754 198.774 133.882 198.723 134.001C197.996 136.527 196.983 138.939 195.698 141.224C194.68 143.029 193.836 144.928 192.689 146.656C191.768 148.138 190.995 149.712 190.059 151.179C187.741 154.445 185.1 157.46 182.444 160.439C181.681 161.18 180.95 161.957 180.228 162.734C180.156 163.176 179.88 163.742 179.384 164.508C178.918 165.26 178.519 166.052 178.109 166.839C177.889 167.374 177.516 167.889 177.014 167.889C176.835 167.889 176.635 167.822 176.426 167.667C176.405 167.652 176.385 167.636 176.369 167.616C176.083 167.549 175.801 167.477 175.525 167.405C174.88 167.235 174.261 167.05 173.652 166.854C166.313 164.514 161.385 160.336 156.022 154.368C155.909 154.229 155.791 154.085 155.679 153.946C150.034 147.006 143.77 139.943 135.127 136.959C135.127 136.959 135.132 136.959 135.132 136.954C134.978 136.887 134.86 136.784 134.779 136.666C135.904 136.933 137.025 137.206 138.146 137.484C138.412 137.545 138.683 137.617 138.944 137.689C138.949 137.756 138.939 137.818 138.929 137.88C140.239 138.199 141.559 138.466 142.869 138.775C146.114 139.675 149.456 139.999 152.798 140.287C153.197 140.761 153.581 141.255 154.005 141.707C155.965 143.662 157.531 146.019 159.282 148.092C162.49 151.246 165.955 154.157 169.798 156.508C172.393 158.181 175.156 159.595 177.956 160.881C178.017 160.902 178.068 160.917 178.13 160.938C179.343 159.971 180.55 158.978 181.594 157.826C185.755 152.758 189.701 147.382 193.027 141.754C194.434 139.315 195.744 136.82 196.727 134.181C196.783 133.985 196.855 133.769 196.942 133.558C196.983 133.414 197.034 133.275 197.085 133.131C197.116 132.905 197.203 132.673 197.321 132.457C197.321 132.447 197.326 132.442 197.331 132.431C197.418 132.092 197.474 131.716 197.802 131.505C198.447 131.125 199.265 131.207 199.982 131.279C201.22 131.356 202.433 131.243 203.661 131.12C205.98 130.873 208.226 130.374 210.514 129.977C212.356 129.653 214.147 129.375 215.805 128.568C219.055 126.248 220.857 122.276 221.276 118.361C221.348 117.111 221.215 115.866 221.082 114.621C221.071 114.59 221.066 114.554 221.061 114.523C220.043 108.478 218.032 102.654 215.811 96.9641C211.261 84.4265 204.557 72.7481 195.883 62.644C190.704 55.8787 183.8 50.4768 175.806 47.5752C174.982 47.3077 174.169 47.0042 173.355 46.6955C172.797 46.4846 172.239 46.2788 171.676 46.0781C170.827 45.7797 169.972 45.5122 169.097 45.3116C168.964 45.5122 168.821 45.7026 168.729 45.8981C168.196 47.2511 167.306 48.3881 166.288 49.4016C164.251 51.5418 161.549 53.4453 158.611 53.9701C158.565 53.471 158.35 53.0903 157.823 52.9617C156.042 52.5707 154.241 52.3083 152.434 52.1386C152.066 51.6704 151.764 51.1405 151.518 50.5849C151.298 50.6672 151.083 50.7546 150.863 50.8421C150.372 51.0324 149.881 51.2331 149.394 51.444C149.072 51.5778 148.75 51.7167 148.432 51.8659C147.25 51.8144 146.068 51.7836 144.881 51.7578C145.167 51.5726 145.449 51.4132 145.643 51.2794C147.061 50.4614 148.453 49.5662 150.019 49.0466C150.459 48.8768 150.955 48.7071 151.401 48.527C151.513 48.4858 151.621 48.4447 151.723 48.3984C151.989 48.2646 152.311 48.2286 152.578 48.3778C152.879 48.5939 153.053 48.9077 153.187 49.2472C153.432 49.8595 153.555 50.5591 154.092 50.9861C156.646 53.1469 160.356 52.1951 162.736 50.2607C164.471 49.026 165.832 47.2665 166.989 45.4916C167.106 45.291 167.219 45.0852 167.337 44.8794C167.48 44.6068 167.628 44.3392 167.802 44.0871C167.859 43.9791 167.941 43.9019 168.033 43.835C168.038 43.8299 168.043 43.8196 168.048 43.8145C168.069 43.8042 168.084 43.7939 168.104 43.7836C168.13 43.7682 168.156 43.7527 168.186 43.7373C168.232 43.7116 168.278 43.6961 168.33 43.6756C168.826 43.5058 169.414 43.6704 169.921 43.7064C171.728 44.0203 173.381 44.8691 175.121 45.4145C184.235 48.3675 192.029 54.4742 197.776 62.1038C204.562 70.0317 210.048 78.9989 214.378 88.4908C217.29 95.6522 220.283 102.834 222.069 110.376C223.38 115.49 223.963 120.887 221.118 125.615Z" fill="#3A0699"/>
<path d="M163.06 135.271V135.245C163.04 132.4 162.953 129.535 162.932 126.71C163.204 117.424 163.014 108.025 162.948 98.7183C163.106 89.1904 162.912 79.4927 162.497 69.9442C162.472 67.5416 162.323 65.1442 162.267 62.7416C162.226 61.9699 162.16 61.2034 162.16 60.4265C162.221 60.0149 162.109 59.5468 161.709 59.3513C161.54 59.2638 161.356 59.2381 161.172 59.269C160.896 59.0632 160.512 58.9706 160.174 58.8831C159.478 58.7185 158.777 58.559 158.081 58.4098C158.163 58.0137 158.194 57.5609 158.26 57.1082C158.204 56.3417 158.71 54.9372 158.613 53.97C158.567 53.4709 158.352 53.0902 157.825 52.9616C156.044 52.5706 154.243 52.3082 152.436 52.1385C151.106 52.0047 149.77 51.9224 148.434 51.8658C147.252 51.8143 146.07 51.7835 144.883 51.7578C143.685 51.732 142.488 51.7114 141.295 51.6857C140.261 51.6909 139.217 51.6806 138.179 51.6703C135.702 51.6497 133.215 51.6291 130.748 51.8246C128 52.0356 125.364 52.3957 122.616 52.7198C117.933 53.3783 113.328 54.5513 109.136 56.7841C108.957 56.8973 108.758 57.0002 108.553 57.1082C108.568 55.8066 108.113 54.0111 107.959 53.4503C106.347 47.6626 100.702 44.9359 96.1478 41.7771C94.6944 40.8253 93.3587 39.6729 92.2635 38.3147C91.7415 37.7179 91.5113 36.2414 90.457 36.617C90.1653 36.7456 90.0169 37.08 90.0374 37.3887C90.063 38.4176 90.1039 39.4466 90.1397 40.4703C90.1909 40.8716 90.237 42.4047 90.4775 43.6446C90.457 43.6343 90.4417 43.624 90.4212 43.6137C89.2032 43.0067 88.236 41.7977 87.0692 41.2729C86.2145 41.1083 86.0098 41.9983 86.0815 42.6671C86.1071 44.051 86.2094 45.4401 86.3015 46.824C86.2094 46.8034 86.1173 46.7829 86.0252 46.7674C84.3057 46.4536 82.5094 45.97 80.7694 46.0677C80.2935 46.1038 80.0018 46.5771 80.0888 46.9938C79.8943 47.1018 79.7408 47.2973 79.7203 47.5185C79.6896 48.2491 79.8841 48.9693 79.9352 49.6947C80.2781 52.0407 80.6927 54.3764 80.9485 56.7532C81.8902 64.0947 83.1389 71.4155 84.884 78.6129C85.6925 82.6052 86.2964 86.6232 87.3506 90.5589C89.5973 99.7421 90.4059 109.208 92.5501 118.412C92.8879 119.925 93.1949 121.447 93.7118 122.914C93.8653 123.547 94.3413 124.03 94.8684 124.365C98.0567 126.932 101.542 129.098 105.221 130.873C105.738 131.13 106.25 131.428 106.767 131.727C107.954 131.814 109.136 131.927 110.318 132.061C110.293 131.433 109.587 131.145 109.095 130.862C108.312 130.425 107.519 130.008 106.757 129.545C103.343 127.302 99.7301 125.388 96.286 123.192C95.1243 122.533 95.2164 121.139 94.9145 119.981C94.3515 117.635 93.937 115.264 93.5327 112.887C92.8828 108.164 91.7671 103.431 90.8613 98.7389C90.0016 92.9871 88.758 87.3074 87.6372 81.6071C86.4397 74.8265 85.2678 68.0458 83.9474 61.2908C83.3385 57.8439 82.7039 54.4073 82.0386 50.9706C81.7878 49.9417 81.6752 48.8819 81.4808 47.8427C81.5678 47.8529 81.6496 47.8632 81.7366 47.8684C85.4111 48.5526 89.0292 49.633 92.5655 50.8369C97.7496 52.8844 102.181 56.2696 106.618 59.5982C106.624 59.8606 106.664 60.1281 106.685 60.3648C106.792 61.4915 106.925 62.613 107.012 63.7397C107.401 67.4644 107.842 71.184 108.45 74.8779C108.742 79.1737 109.223 83.4489 109.924 87.6933C111.168 97.6122 112.115 107.588 113.891 117.429C114.566 120.871 114.96 124.349 115.405 127.832C115.451 128.166 115.497 128.506 115.543 128.846C115.569 129.617 115.851 130.646 115.851 131.042C115.948 131.66 116.03 132.282 116.112 132.9C116.767 133.018 117.417 133.136 118.072 133.265C118.169 133.28 118.266 133.296 118.363 133.311C118.312 132.894 118.2 132.462 118.148 132.169C118.031 131.655 117.939 131.135 117.852 130.62C117.77 129.381 117.524 128.146 117.355 126.916C116.895 124.174 116.393 121.437 116.137 118.664C114.668 106.446 112.847 94.2682 111.342 82.0496C110.538 77.2702 109.96 72.4599 109.479 67.6342C109.136 64.9899 108.655 62.3661 108.445 59.7063C108.655 59.66 108.88 59.6137 109.121 59.5828C109.285 59.5519 109.423 59.4696 109.53 59.3564C113.246 58.4818 117.069 58.1629 120.866 57.8079C122.652 57.849 124.423 57.669 126.198 57.5712C129.218 57.5455 132.232 57.6638 135.246 57.8079C143.629 58.1166 152.022 58.8831 160.21 60.7969C160.164 61.4349 160.22 62.1551 160.21 62.5461C160.292 64.2079 160.317 65.8747 160.409 67.5365C160.732 74.8162 160.926 82.101 161.065 89.3859C161.059 91.9479 161.111 94.5151 161.162 97.0772V97.4116C161.192 100.488 161.208 103.549 161.228 106.615C161.157 110.741 160.993 114.924 160.978 119.035C160.957 122.955 161.08 126.875 161.208 130.79C161.223 132.406 161.254 134.021 161.315 135.631C161.254 136.542 161.32 137.463 161.29 138.373C161.279 138.502 161.269 138.631 161.269 138.759C157.237 138.955 153.199 138.518 149.202 137.926C143.393 136.933 137.774 135.06 132.007 133.872C129.745 133.424 127.452 133.383 125.154 133.481C123.353 133.44 121.536 133.45 119.73 133.522C122.34 133.939 124.96 134.407 127.514 135.004C128.65 135.245 129.781 135.498 130.912 135.755C132.038 135.94 133.194 136.228 134.346 136.557C134.489 136.593 134.637 136.629 134.781 136.665C135.906 136.933 137.027 137.206 138.148 137.483C138.414 137.545 138.685 137.617 138.946 137.689C138.951 137.756 138.941 137.818 138.931 137.88C140.241 138.199 141.561 138.466 142.871 138.775C146.116 139.675 149.458 139.999 152.8 140.287C153.992 140.39 155.184 140.488 156.372 140.606C156.929 140.658 157.492 140.683 158.05 140.683C158.567 140.683 159.084 140.663 159.606 140.622C160.409 140.658 161.228 140.75 162.016 140.519C162.267 140.431 162.462 140.262 162.697 140.143C162.922 139.979 163.014 139.716 162.994 139.459C163.009 139.418 163.025 139.372 163.03 139.32C163.219 137.988 163.112 136.624 163.06 135.271ZM104.254 55.5082C101.107 53.3886 98.0208 51.1095 94.5767 49.4941C92.3198 48.4497 89.9709 47.6626 87.5605 47.0967C87.6168 45.8671 87.5451 44.6427 87.5451 43.4131C93.4764 48.0793 102.11 49.8234 105.887 56.6555C105.354 56.2593 104.802 55.8838 104.254 55.5082Z" fill="#3A0699"/>
<path d="M113.915 73.3314C117.825 72.7958 121.746 72.3169 125.696 72.178C129.373 72.0036 133.041 72.3112 136.707 72.5124C143.058 72.7511 149.379 73.2419 155.673 74.1942C156.833 74.3454 156.978 72.9358 156.93 72.0854C157.008 69.6169 157.334 67.1449 157.099 64.675C157.159 63.8904 156.39 63.5395 155.737 63.415C154.227 63.0683 152.708 62.7586 151.183 62.488C146.93 61.8526 142.675 61.1941 138.387 60.8314C130.138 60.2084 121.823 60.4255 113.643 61.7477C112.593 61.8207 111.947 62.2266 112.09 63.3723C111.821 65.3067 112.394 67.325 112.336 69.3643C112.412 70.0388 112.53 70.7081 112.638 71.3769C112.787 72.198 112.766 73.4225 113.915 73.3314Z" fill="#CFB5FF"/>
<path d="M148.415 103.742C148.535 103.742 148.655 103.741 148.775 103.741C149.32 103.735 149.866 103.73 150.411 103.725C150.974 103.719 151.537 103.717 152.098 103.689C152.629 103.662 153.16 103.615 153.69 103.572C154.201 103.529 154.715 103.51 155.226 103.458L155.347 103.446C155.644 103.399 155.885 103.201 156.01 102.943C156.444 102.459 156.168 101.453 156.19 100.796C156.157 96.9398 156.538 93.1549 156.344 89.2763C156.185 85.4137 156.264 81.5243 155.884 77.6787C155.811 77.2316 155.691 76.7192 155.259 76.4898C154.315 76.1667 153.279 76.1754 152.301 75.9645C148.045 75.6059 143.788 75.2221 139.528 74.8985C136.087 74.5548 132.636 74.2806 129.176 74.4983C127.59 74.5929 126 74.5132 124.424 74.7339C123.772 74.8285 122.804 74.6238 122.534 75.4397C122.296 76.4038 122.393 77.4343 122.42 78.4247C122.383 79.236 122.379 80.0478 122.35 80.8576C122.346 80.9661 122.336 81.1904 122.327 81.4148C122.327 81.4148 122.323 81.5321 122.318 81.6478C122.317 81.6854 122.311 81.8402 122.306 81.9946C122.284 82.562 122.265 83.13 122.258 83.6974C122.251 84.2742 122.262 84.8509 122.276 85.4271C122.289 85.9981 122.299 86.5713 122.312 87.1444C122.322 87.7211 122.347 88.2978 122.356 88.874C122.375 90.011 122.379 91.1464 122.43 92.2839C122.483 93.4404 122.474 94.599 122.538 95.756C122.598 96.8611 122.635 97.9682 122.726 99.0713C122.772 99.6372 122.835 100.202 122.896 100.765C122.939 101.171 122.974 101.584 123.107 101.972C123.23 102.279 123.437 102.55 123.763 102.657C123.979 102.728 124.204 102.761 124.429 102.787C124.845 102.839 125.261 102.876 125.678 102.907C126.479 102.967 127.275 103.049 128.074 103.131C129.184 103.245 130.301 103.284 131.414 103.344C131.962 103.373 132.511 103.392 133.06 103.426C133.638 103.46 134.216 103.493 134.793 103.514L134.86 103.517C134.862 103.517 134.864 103.517 134.866 103.517C134.885 103.517 134.907 103.518 134.93 103.518C136.096 103.557 137.263 103.607 138.429 103.627C139.591 103.645 140.754 103.689 141.917 103.693C143.066 103.698 144.215 103.73 145.364 103.711C145.927 103.702 146.486 103.719 147.048 103.729C147.502 103.736 147.959 103.742 148.415 103.742ZM145.23 101.892C144.099 101.911 142.966 101.879 141.833 101.872C140.664 101.861 139.494 101.828 138.324 101.805C137.161 101.78 135.999 101.736 134.836 101.697C134.756 101.693 134.674 101.69 134.592 101.687C134.04 101.666 133.367 101.613 132.691 101.584C132.048 101.556 131.406 101.518 130.763 101.483C130.211 101.452 129.66 101.433 129.11 101.392C128.547 101.351 127.988 101.289 127.426 101.232C126.913 101.179 126.397 101.136 125.884 101.097C125.504 101.068 125.122 101.042 124.742 100.996C124.712 100.778 124.692 100.559 124.67 100.343C124.633 99.9798 124.594 99.6161 124.556 99.2519V99.2513C124.552 99.2117 124.548 99.1721 124.544 99.1325C124.472 98.3325 124.439 97.445 124.392 96.5591C124.364 96.0236 124.334 95.488 124.312 94.9504C124.291 94.3505 124.28 93.7527 124.27 93.1528C124.257 92.5905 124.227 92.0282 124.206 91.4659C124.186 90.9087 124.172 90.35 124.167 89.7913C124.158 88.6379 124.112 87.4865 124.083 86.3336C124.053 85.1786 124.007 84.0236 124.023 82.8671C124.03 82.2852 124.042 81.7034 124.053 81.1215C124.06 80.7717 124.058 80.4224 124.054 80.0735C124.108 79.9593 124.147 79.8364 124.151 79.7031C124.18 78.6526 124.134 77.6298 124.193 76.5757C129.249 76.1312 134.405 76.1399 139.464 76.7223C144.346 77.1611 149.258 77.3844 154.11 78.0831C154.444 82.7946 154.476 87.5359 154.593 92.2602C154.542 95.4052 154.296 98.5583 154.434 101.702C154.146 101.719 153.859 101.735 153.571 101.758C153.033 101.803 152.497 101.847 151.957 101.874C151.392 101.902 150.826 101.901 150.259 101.906C149.73 101.911 149.2 101.918 148.671 101.92C148.093 101.922 147.515 101.922 146.936 101.908C146.368 101.892 145.799 101.881 145.23 101.892Z" fill="#5F0AFF"/>
<path d="M119.427 76.3455C118.041 76.1341 116.595 76.4875 115.195 76.5482C114.745 76.5822 114.292 76.5858 113.844 76.6408C113.578 76.6727 113.242 76.7051 113.106 76.9737C113.025 77.1301 113.067 77.2906 113.085 77.4527C113.111 77.8138 113.107 78.2881 113.177 78.6647C113.282 79.0912 113.181 79.7353 113.653 79.9478C114.809 79.9416 115.989 79.7302 117.16 79.7467C118.009 79.6664 118.897 79.8871 119.707 79.565C120.12 79.3896 120.128 78.9184 120.043 78.5387C119.9 77.8292 120.043 76.8389 119.427 76.3455Z" fill="#5F0AFF"/>
<path d="M131.144 112.098C130.949 111.439 130.217 111.347 129.629 111.394C128.325 111.42 127.026 111.504 125.723 111.559C124.531 111.612 123.337 111.63 122.144 111.679C121.595 111.767 120.671 111.542 120.425 112.181C120.425 112.18 120.424 112.18 120.423 112.179C120.175 113.811 120.523 115.52 120.543 117.174C120.796 120.596 121.005 124.02 121.413 127.429C121.765 130.845 121.632 130.488 124.957 130.637C132.152 129.812 132.119 132.425 131.684 124.621C131.663 120.443 131.392 116.26 131.144 112.098ZM123.84 128.834C123.685 128.821 123.529 128.817 123.373 128.812C122.721 123.74 122.41 118.574 121.855 113.477C124.414 113.364 126.975 113.285 129.534 113.166C129.865 118.344 130.015 123.526 130.196 128.71C128.075 128.664 125.953 128.986 123.84 128.834Z" fill="#5F0AFF"/>
<path d="M138.663 111.62C137.231 111.677 135.783 111.449 134.322 111.383C133.37 111.336 132.862 111.685 133.037 112.691C133.162 114.848 133.234 117.009 133.354 119.165C133.459 122.744 133.315 126.323 133.384 129.904C133.256 131.289 134.581 131.235 135.558 131.473C137.623 131.921 139.697 132.338 141.772 132.732C142.898 132.951 143.18 131.965 143.19 131.05C143.364 128.524 143.306 125.989 143.413 123.46C143.438 119.807 143.33 116.131 143.179 112.492C142.682 111.203 139.827 111.745 138.663 111.62ZM141.541 130.953C139.85 130.543 138.131 130.282 136.441 129.869C136.005 129.776 135.563 129.696 135.126 129.602C135.109 124.139 135.28 118.602 134.707 113.129C136.99 113.453 139.2 113.267 141.51 113.444C141.697 119.295 141.772 125.095 141.541 130.953Z" fill="#5F0AFF"/>
<path d="M157.82 118.617C157.777 116.892 157.723 115.166 157.684 113.44C157.735 112.192 157.556 111.455 156.158 111.388C154.72 111.253 153.272 111.351 151.831 111.352C150.116 111.369 148.487 111.369 146.749 111.258C146.51 111.24 146.249 111.3 146.069 111.468C145.334 112.283 145.745 113.549 145.73 114.549C145.862 116.694 145.952 118.846 146.096 120.991C146.311 123.251 146.497 125.514 146.675 127.778C146.844 129.223 146.786 130.825 147.464 132.122C147.911 132.597 148.607 132.52 149.201 132.581C150.517 132.696 151.779 132.702 153.104 132.711L152.985 132.709C154.23 132.743 155.475 132.732 156.719 132.679C157.618 132.722 157.992 131.8 157.952 131.026C157.837 126.892 157.835 122.754 157.82 118.617ZM155.377 130.965C153.246 130.979 151.065 130.958 148.887 130.795C148.101 124.924 147.933 118.995 147.492 113.094C150.229 113.275 153.133 113.023 155.918 113.18C156.111 119.102 156.029 125.03 156.213 130.95C155.935 130.957 155.656 130.959 155.377 130.965Z" fill="#5F0AFF"/>
<path d="M108.512 102.757C106.991 101.866 105.309 101.223 103.714 100.456C102.964 100.201 102.018 99.4971 101.156 99.6C100.634 99.7672 100.719 100.446 101.144 100.682C103.208 101.854 105.733 103.214 107.91 104.085C108.613 104.173 109.04 103.23 108.512 102.757Z" fill="#5F0AFF"/>
<path d="M106.889 100.213C107.657 100.31 108.139 99.2669 107.552 98.7498C105.595 97.7199 103.541 96.7949 101.51 95.8951C101.225 95.7829 100.922 95.6692 100.612 95.7068C100.237 95.751 100.003 96.2032 100.164 96.5412C100.55 97.1848 101.362 97.4004 101.965 97.7924C103.588 98.6166 105.158 99.6512 106.889 100.213Z" fill="#5F0AFF"/>
<path d="M106.763 96.5981C107.144 96.6269 107.513 96.4082 107.649 96.0394C107.946 95.2471 107.092 94.8442 106.501 94.5891C105.674 94.1801 104.849 93.7726 104.019 93.3662C102.802 92.7941 101.618 92.0872 100.341 91.6736C99.8299 91.6113 99.4788 92.188 99.6855 92.6398C100.087 93.2972 100.942 93.4953 101.553 93.9141C103.263 94.8376 104.953 95.9154 106.763 96.5981Z" fill="#5F0AFF"/>
<path d="M100.481 89.7796C102.392 90.7731 104.249 91.9887 106.258 92.7445C107.29 92.7846 107.461 91.4635 106.567 91.0663C104.437 90.0569 102.366 88.7785 100.129 88.0479C100.13 88.05 100.13 88.0515 100.131 88.0531C99.6151 87.9764 99.2358 88.6015 99.5142 89.0372C99.7271 89.3984 100.142 89.5625 100.481 89.7796Z" fill="#5F0AFF"/>
<path d="M101.703 87.019C103.108 87.7444 104.51 88.4714 105.918 89.1901C106.856 89.6917 107.695 88.3309 106.835 87.7043C105.006 86.7433 103.164 85.8743 101.258 85.0507C100.85 84.8896 100.455 84.6566 100.014 84.6077C99.5717 84.5583 99.2227 85.0455 99.4121 85.4514C99.8793 86.2813 100.922 86.5586 101.703 87.019Z" fill="#5F0AFF"/>
<path d="M110.721 117.987C110.215 115.085 110.04 112.095 109.433 109.232C107.529 107.127 105.217 105.272 102.694 103.975C100.91 103.781 101.794 106.137 101.786 107.175C102.063 110.338 102.377 113.498 102.807 116.644C103.064 119.02 103.478 121.374 103.996 123.704C104.228 124.483 104.223 125.401 104.773 126.037C105.811 127.111 107.247 127.669 108.447 128.535C109.474 129.138 110.418 130.08 111.612 130.299C113.279 130.126 112.079 127.343 111.978 126.283C111.477 123.553 111.092 120.747 110.721 117.987ZM106.053 124.883C104.587 118.805 104.195 112.512 103.282 106.336C104.905 107.343 106.525 108.717 107.898 110.124C108.713 116.095 109.388 122.111 110.656 128.006C109.168 126.896 107.485 126.056 106.053 124.883Z" fill="#CFB5FF"/>
<path d="M104.56 84.55C106.764 85.0403 105.822 81.5995 105.751 80.3787C105.498 78.6506 105.247 76.9163 105.054 75.1805C105.055 74.5971 104.485 74.2442 103.99 74.0523C102.724 73.3876 101.195 72.8654 99.7979 72.4225C98.1244 71.8483 98.193 73.9638 98.3179 75.0509C98.4136 76.5912 98.4934 78.1387 98.6433 79.6759C98.7728 80.5727 98.7257 81.5728 99.1848 82.3702C99.4361 82.6727 99.8091 82.7782 100.169 82.8934C101.641 83.4182 103.066 84.0885 104.56 84.55ZM102.656 75.3189C102.917 75.4481 103.176 75.5777 103.437 75.7048C103.625 78.0502 104.161 80.3566 104.313 82.7051C104 82.5873 103.691 82.4618 103.386 82.3306C103.137 82.2236 102.892 82.1099 102.643 82.0034C102.117 81.7955 101.607 81.5393 101.148 81.206C100.821 78.9536 100.741 76.6709 100.389 74.4217C101.161 74.682 101.919 74.9696 102.656 75.3189Z" fill="#5F0AFF"/>
<path d="M95.7252 85.9489C95.6438 85.3125 95.5594 84.7728 95.4668 84.1246C95.3368 83.5731 94.7805 83.2907 94.3639 82.9748C93.5999 82.3672 92.7206 82.128 91.7831 81.8661C89.3405 80.7744 89.864 83.2444 90.039 84.7687C90.2376 87.1564 90.4878 89.5461 90.9776 91.8931C91.3737 93.8033 91.5984 95.7526 92.193 97.6371C92.3588 98.115 92.8624 98.2683 93.3184 98.3213C94.0789 98.5117 94.8583 98.6146 95.631 98.7514C96.3142 98.9896 97.174 98.6635 96.9463 97.8151C97.1622 93.845 96.1453 89.8877 95.7252 85.9489ZM95.0067 96.6889C94.6812 96.6359 94.3567 96.5763 94.0328 96.5161C92.9719 92.2733 92.7022 87.8679 91.626 83.6333C91.6265 83.6333 91.6265 83.6333 91.627 83.6338C92.4597 83.8211 93.2022 84.2177 93.8614 84.7595C94.3644 88.7507 95.0845 92.7152 95.3168 96.7368C95.2129 96.7213 95.1095 96.7054 95.0067 96.6889Z" fill="#5F0AFF"/>
<path d="M101.37 67.7553C102.366 67.9884 102.876 66.5638 101.979 66.0859C99.4071 64.8249 96.8417 63.5495 94.2839 62.2541C92.7256 61.4639 91.1535 60.705 89.5522 60.0064C89.1555 59.851 88.5343 59.4724 88.042 59.547C87.2856 59.6473 87.1223 60.7652 87.804 61.0857C87.8019 61.0857 87.7999 61.0863 87.7978 61.0863C92.3914 63.1652 96.7828 65.6784 101.37 67.7553Z" fill="#5F0AFF"/>
<path d="M101.987 64.4197C102.433 64.5936 102.966 64.3431 103.131 63.8857C103.44 63.0214 102.492 62.6407 101.877 62.3377C101.072 61.9225 100.25 61.5351 99.4433 61.124C95.729 59.3646 92.1001 57.3839 88.2445 55.947C87.8279 55.8086 87.3914 55.6074 86.9467 55.7283C86.4493 55.8652 86.2609 56.5268 86.589 56.9188C87.5311 57.6648 88.8161 57.9148 89.8832 58.4725C93.9348 60.413 97.9746 62.4061 101.987 64.4197Z" fill="#5F0AFF"/>
<path d="M101.787 60.7898C103.087 61.1016 103.367 59.4743 102.249 58.9727C97.59 55.9276 92.5256 53.4406 87.2647 51.6765C86.2607 51.2351 85.5304 52.2635 86.471 52.9293C91.7288 55.2011 96.9703 57.631 101.787 60.7898Z" fill="#5F0AFF"/>
<path d="M160.624 118.058C157.989 116.913 157.248 113.319 158.25 110.813C158.514 110.24 158.901 109.727 159.31 109.251C159.936 108.503 160.947 108.15 161.72 107.633C161.815 106.963 161.922 106.291 162.024 105.623C161.79 105.355 161.87 104.906 162.206 104.766C163.06 104.583 164.082 104.921 164.644 105.604C166.2 107.836 165.679 110.792 165.764 113.365C165.734 114.477 165.643 115.725 164.854 116.583C163.776 117.674 162.19 118.734 160.624 118.058ZM161.65 116.601C162.467 116.581 163.115 115.961 163.685 115.435C164.336 114.331 164.026 112.92 164.117 111.691C164.119 109.974 164.229 108.366 163.535 106.81C163.464 109.83 161.301 108.993 160.011 111.105C158.974 112.804 159.506 116.083 161.65 116.601Z" fill="#3A0699"/>
<path d="M87.3984 86.7457C85.6553 86.5065 83.1436 86.239 82.7316 84.1441C82.4051 82.0821 82.0633 79.6193 83.399 77.846C84.074 76.9179 85.532 76.0674 86.316 77.3418C88.2218 78.8548 90.4305 80.9924 89.9597 83.6708C89.6951 84.9389 89.0212 87.004 87.3984 86.7457ZM87.1896 85.0459C87.3221 85.0691 87.4562 85.0969 87.5908 85.12C89.5232 82.4839 87.0734 80.1636 85.0642 78.6187C83.7147 79.893 84.1497 82.3928 84.487 84.0474C85.1308 84.8335 86.292 84.8499 87.1896 85.0459Z" fill="#3A0699"/>
<path d="M85.0639 78.6189C87.0731 80.1638 89.5213 82.4841 87.5899 85.1197C87.4553 85.0966 87.3207 85.0698 87.1882 85.0467C86.2906 84.8491 85.1294 84.8331 84.4866 84.0465C84.1483 82.3935 83.7128 79.8927 85.0639 78.6189Z" fill="white"/>
<path d="M163.532 106.81C164.226 108.365 164.117 109.974 164.115 111.691C164.023 112.92 164.332 114.33 163.683 115.435C163.113 115.96 162.465 116.581 161.647 116.601C159.503 116.083 158.971 112.805 160.008 111.105C161.299 108.993 163.462 109.829 163.532 106.81Z" fill="white"/>
<path d="M168.329 43.6754C168.277 43.696 168.231 43.7115 168.185 43.7372C168.155 43.7526 168.129 43.768 168.103 43.7835C168.083 43.7938 168.068 43.8041 168.047 43.8144C168.042 43.8195 168.037 43.8298 168.032 43.8349C167.94 43.9018 167.858 43.979 167.802 44.087C167.628 44.3391 167.479 44.6066 167.336 44.8793C166.256 44.2928 165.627 43.0015 165.007 41.9571C162.73 37.9649 163.237 31.5958 158.262 29.7025C150.473 27.2588 146.768 35.5006 149.051 41.9828C149.834 44.3648 152.039 48.6606 155.074 47.4156C155.821 46.8343 156.758 47.9095 156.092 48.5835C155.581 49.1185 154.828 49.3603 154.102 49.3552C153.784 49.3449 153.477 49.3089 153.186 49.2471C153.053 48.9076 152.879 48.5938 152.577 48.3777C152.311 48.2285 151.988 48.2645 151.722 48.3983C151.62 48.4446 151.512 48.4857 151.4 48.5269C149.102 47.0967 147.761 44.0716 147.065 41.5198C145.228 34.4047 149.399 26.1475 157.566 27.691C161.676 28.3032 163.825 32.2749 164.767 35.9687C165.325 37.9957 165.755 40.0948 166.875 41.9108C167.269 42.5333 167.617 43.269 168.277 43.6497C168.293 43.66 168.313 43.6703 168.329 43.6754Z" fill="#3A0699"/>
<path d="M162.612 32.5805C160.294 33.3013 158.528 35.1004 156.676 36.6222C156.308 36.9905 155.908 37.3378 155.527 37.7005C154.247 35.8232 152.004 34.8797 150.336 37.4175C149.988 38.0884 149.811 38.9445 149.8 39.852C149.485 39.7717 149.163 39.7347 148.91 39.7151C148.648 39.6796 148.201 39.7897 147.773 39.9821C147.346 39.1688 146.812 38.4639 146.207 37.9798C146.356 37.8919 146.505 37.8008 146.647 37.7118C146.663 37.1546 146.714 36.6011 146.798 36.0583C146.784 36.0681 146.77 36.0784 146.755 36.0897C146.191 36.547 145.592 36.9545 144.981 37.3481C144.98 37.3481 144.98 37.3496 144.978 37.3496C143.301 37.0204 141.811 38.8447 141.913 40.617C141.903 42.9856 142.875 45.4396 144.705 46.9701C145.15 47.3761 145.697 47.5664 146.238 47.5664C147.111 47.5664 147.969 47.072 148.355 46.1887C149.029 44.8541 148.902 42.8894 148.279 41.1454C148.534 41.0918 148.794 41.0759 149.05 41.1135C149.36 41.1454 149.647 41.3357 149.939 41.4391C150.317 43.4481 151.453 45.3275 153.26 45.6783C156.464 46.3492 157.078 42.3667 156.473 40.0351C156.413 39.6668 156.312 39.2964 156.174 38.9388C156.598 38.6574 156.979 38.2571 157.369 37.9726C158.767 36.8619 160.065 35.6148 161.541 34.6054C163.125 33.4736 165.593 33.0322 165.724 35.6802C165.735 36.6751 167.011 37.0291 167.262 35.9755C167.117 33.2802 165.263 31.7265 162.612 32.5805ZM146.366 46.0935C144.62 45.7179 143.949 42.7567 143.572 41.2246C143.324 40.4004 143.553 38.9002 144.604 38.8735C146.428 39.0942 148.46 45.5487 146.366 46.0935ZM154.061 44.1982C152.546 44.3052 151.917 42.6893 151.491 41.4823C151.285 40.119 151.021 38.1244 152.551 37.4674C154.305 37.6367 154.907 39.9482 155.052 41.436C155.09 42.3168 155.162 43.9384 154.061 44.1982Z" fill="#5F0AFF"/>
<path d="M181.45 41.4779C182.241 43.3125 182.765 45.3807 181.881 47.2811C181.621 48.023 181.107 49.0715 180.16 48.646C178.145 47.8203 176.097 46.9287 174.061 46.1797C172.114 45.4748 169.933 45.3256 168.186 44.1562C167.01 43.3465 166.853 41.5777 165.573 40.9264C164.909 40.7376 164.231 40.6738 163.672 40.4691C162.597 40.1398 161.482 39.2801 161.588 38.0382C161.601 37.588 161.765 37.1163 161.539 36.6929C161.356 36.2638 160.758 36.3425 160.482 36.6306C160.184 36.8462 160.101 37.248 159.704 37.2588C158.872 37.1646 159.03 35.9968 158.632 35.4453C157.507 33.0978 155.256 34.1658 153.376 34.6926C151.623 35.0646 149.749 35.4417 147.989 34.9648C147.339 35.2585 146.868 34.4416 146.483 34.0516C144.845 32.0297 145.921 29.1328 148.042 27.9531C148.706 23.15 155.382 19.877 159.084 23.4541C159.085 23.4541 159.085 23.4525 159.085 23.4525C161.103 22.7354 163.272 22.4329 165.329 23.0538C168.035 23.8122 170.464 26.154 170.296 29.1384C171.799 29.8042 173.319 30.4339 174.588 31.4767C176.299 32.9769 177.474 35.2122 177.317 37.5325C179.308 37.9595 180.753 39.6238 181.45 41.4779Z" fill="#3A0699"/>
<defs>
<linearGradient id="paint0_linear_2596_11054" x1="144.957" y1="23.7879" x2="158.347" y2="267.913" gradientUnits="userSpaceOnUse">
<stop stop-color="white" stop-opacity="0"/>
<stop offset="1" stop-color="#E5DFFE"/>
</linearGradient>
</defs>
</svg>
